<mxfile host="www.draw.io" modified="2020-01-30T22:45:14.097Z" agent="Mozilla/5.0 (Windows NT 10.0; Win64; x64) AppleWebKit/537.36 (KHTML, like Gecko) Chrome/79.0.3945.130 Safari/537.36" etag="dg3IZ_zc6L2_JpHhyqNa" version="12.6.2" type="github">
  <diagram id="IHqy7XGbUocOzgiCqlBh" name="Page-1">
    <mxGraphModel dx="2031" dy="1134" grid="1" gridSize="10" guides="1" tooltips="1" connect="1" arrows="1" fold="1" page="1" pageScale="1" pageWidth="850" pageHeight="1100" math="0" shadow="0">
      <root>
        <mxCell id="0"/>
        <mxCell id="1" parent="0"/>
        <mxCell id="wuBHW3_i2wkjCvPNT6zz-1" value="" style="verticalLabelPosition=bottom;verticalAlign=top;html=1;shadow=0;dashed=0;strokeWidth=1;shape=mxgraph.android.phone2;strokeColor=#c0c0c0;" vertex="1" parent="1">
          <mxGeometry x="10" y="20" width="200" height="390" as="geometry"/>
        </mxCell>
        <mxCell id="wuBHW3_i2wkjCvPNT6zz-2" value="" style="verticalLabelPosition=bottom;shadow=0;dashed=0;align=center;html=1;verticalAlign=top;strokeWidth=1;shape=mxgraph.mockup.graphics.bubbleChart;strokeColor=none;strokeColor2=none;strokeColor3=#666666;fillColor2=#008cff;fillColor3=#dddddd;" vertex="1" parent="1">
          <mxGeometry x="20" y="50" width="180" height="290" as="geometry"/>
        </mxCell>
        <mxCell id="wuBHW3_i2wkjCvPNT6zz-3" value="" style="verticalLabelPosition=bottom;verticalAlign=top;html=1;shadow=0;dashed=0;strokeWidth=2;shape=mxgraph.android.navigation_bar_2;fillColor=#1A1A1A;strokeColor=#999999;" vertex="1" parent="1">
          <mxGeometry x="17.5" y="340" width="185" height="30" as="geometry"/>
        </mxCell>
        <mxCell id="wuBHW3_i2wkjCvPNT6zz-4" value="APOD Image" style="whiteSpace=wrap;html=1;shape=mxgraph.basic.roundRectCallout;dx=30;dy=15;size=5;boundedLbl=1;" vertex="1" parent="1">
          <mxGeometry x="170" y="20" width="100" height="60" as="geometry"/>
        </mxCell>
      </root>
    </mxGraphModel>
  </diagram>
</mxfile>
